<svg width="35" height="35" viewBox="0 0 65 25" fill="none" xmlns="http://www.w3.org/2000/svg">
<path d="M11.7762 24.4928C9.70334 24.4772 7.85274 23.9945 6.22442 23.0448C4.59609 22.095 3.31467 20.726 2.38017 18.9377C1.45608 17.1494 1.0035 14.9949 1.02244 12.4742C1.04154 9.93256 1.53172 7.77473 2.49299 6.00065C3.46468 4.22665 4.77173 2.87706 6.41415 1.95187C8.06698 1.02676 9.9142 0.571877 11.9558 0.587216C13.7578 0.600755 15.3751 0.946249 16.8075 1.6237C18.2504 2.30122 19.4254 3.27362 20.3326 4.54089C21.2398 5.80816 21.7908 7.33838 21.9856 9.13156L17.017 9.09423C16.8392 7.81161 16.2999 6.80232 15.3991 6.06637C14.4984 5.31999 13.3763 4.94176 12.0325 4.93167C10.2409 4.9182 8.79325 5.57401 7.68951 6.89909C6.58586 8.21375 6.02491 10.0846 6.00667 12.5116C5.98805 14.9907 6.52074 16.8802 7.60476 18.18C8.69919 19.4799 10.1318 20.1366 11.9026 20.1499C13.2046 20.1597 14.3113 19.8242 15.2227 19.1435C16.1445 18.4629 16.7247 17.5037 16.9632 16.2659L21.9318 16.3032C21.744 17.7289 21.2235 19.0688 20.3703 20.3229C19.5275 21.577 18.3792 22.5892 16.9255 23.3596C15.4822 24.13 13.7657 24.5077 11.7762 24.4928ZM25.4188 24.2828L25.5937 1.00219L34.7497 1.07098C36.5205 1.08429 38.0231 1.43413 39.2576 2.12051C40.5024 2.80696 41.4485 3.74639 42.0958 4.93879C42.7431 6.13118 43.061 7.49819 43.0494 9.03982C43.0378 10.5814 42.6943 11.9383 42.0188 13.1103C41.3433 14.2824 40.3729 15.197 39.1075 15.8541C37.8422 16.5009 36.3137 16.8176 34.5221 16.8041L30.3816 16.773L30.3249 24.3196L25.4188 24.2828ZM30.4112 12.8356L33.7392 12.8606C35.1663 12.8713 36.2262 12.5199 36.9191 11.8063C37.6225 11.0824 37.9785 10.1476 37.9871 9.00178C37.9958 7.83515 37.6539 6.89505 36.9614 6.18149C36.2688 5.46794 35.209 5.1058 33.7819 5.09508L30.4695 5.07019L30.4112 12.8356ZM45.3907 5.21355L45.4213 1.15116L64.5301 1.29473L64.4996 5.35712L57.406 5.30382L57.2616 24.522L52.3555 24.4852L52.4999 5.26696L45.3907 5.21355Z" fill="white"/>
</svg>
