<svg width="35" height="35" viewBox="0 0 65 25" fill="none" xmlns="http://www.w3.org/2000/svg">
<path d="M11.7762 24.4928C9.70334 24.4772 7.85274 23.9946 6.22442 23.0448C4.59609 22.095 3.31467 20.726 2.38017 18.9377C1.45608 17.1494 1.0035 14.9949 1.02244 12.4742C1.04154 9.93258 1.53172 7.77474 2.49299 6.00066C3.46468 4.22666 4.77173 2.87707 6.41415 1.95188C8.06698 1.02678 9.9142 0.571892 11.9558 0.587231C13.7578 0.600771 15.3751 0.946264 16.8075 1.62371C18.2504 2.30124 19.4254 3.27364 20.3326 4.5409C21.2398 5.80817 21.7908 7.3384 21.9856 9.13158L17.017 9.09425C16.8392 7.81162 16.2999 6.80234 15.3991 6.06638C14.4984 5.32001 13.3763 4.94178 12.0325 4.93168C10.2409 4.91822 8.79325 5.57403 7.68951 6.89911C6.58586 8.21377 6.02491 10.0846 6.00667 12.5116C5.98805 14.9907 6.52074 16.8802 7.60476 18.18C8.69919 19.48 10.1318 20.1366 11.9026 20.1499C13.2046 20.1597 14.3113 19.8242 15.2227 19.1435C16.1445 18.463 16.7247 17.5037 16.9632 16.2659L21.9318 16.3033C21.744 17.729 21.2235 19.0688 20.3703 20.3229C19.5275 21.577 18.3792 22.5892 16.9255 23.3596C15.4822 24.13 13.7657 24.5078 11.7762 24.4928ZM25.4188 24.2828L25.5937 1.00221L34.7497 1.071C36.5205 1.0843 38.0231 1.43414 39.2576 2.12052C40.5024 2.80698 41.4485 3.7464 42.0958 4.9388C42.7431 6.1312 43.061 7.49821 43.0494 9.03983C43.0378 10.5815 42.6943 11.9383 42.0188 13.1103C41.3433 14.2824 40.3729 15.197 39.1075 15.8542C37.8422 16.5009 36.3137 16.8176 34.5221 16.8041L30.3816 16.773L30.3249 24.3197L25.4188 24.2828ZM30.4112 12.8356L33.7392 12.8606C35.1663 12.8713 36.2262 12.5199 36.9191 11.8064C37.6225 11.0824 37.9785 10.1476 37.9871 9.0018C37.9958 7.83516 37.6539 6.89507 36.9614 6.18151C36.2688 5.46795 35.209 5.10581 33.7819 5.09509L30.4695 5.0702L30.4112 12.8356ZM45.3907 5.21356L45.4213 1.15118L64.5301 1.29475L64.4996 5.35714L57.406 5.30384L57.2616 24.522L52.3555 24.4852L52.4999 5.26698L45.3907 5.21356Z" fill="#475463"/>
</svg>
