<svg xmlns="http://www.w3.org/2000/svg" width="315" height="49" fill="none"><path fill="#475463" d="M22.656 48.625c-4.146 0-7.854-.938-11.125-2.813-3.27-1.874-5.854-4.593-7.75-8.156C1.906 34.094.97 29.792.97 24.75c0-5.083.948-9.406 2.844-12.969 1.916-3.562 4.51-6.281 7.78-8.156C14.886 1.75 18.574.812 22.657.812c3.604 0 6.844.667 9.719 2 2.896 1.334 5.26 3.26 7.094 5.782 1.833 2.52 2.958 5.573 3.375 9.156h-9.938c-.375-2.563-1.468-4.573-3.281-6.031-1.813-1.48-4.063-2.219-6.75-2.219-3.583 0-6.469 1.333-8.656 4-2.188 2.646-3.281 6.396-3.281 11.25 0 4.958 1.093 8.73 3.28 11.313 2.21 2.583 5.084 3.874 8.626 3.874 2.604 0 4.812-.687 6.625-2.062 1.833-1.375 2.979-3.302 3.437-5.781h9.938c-.354 2.854-1.375 5.541-3.063 8.062-1.666 2.521-3.948 4.563-6.843 6.125-2.876 1.563-6.303 2.344-10.282 2.344ZM49.938 48V1.437H68.25c3.542 0 6.552.678 9.031 2.032 2.5 1.354 4.406 3.219 5.719 5.594 1.313 2.374 1.969 5.104 1.969 8.187 0 3.083-.667 5.802-2 8.156-1.334 2.354-3.26 4.198-5.781 5.532-2.521 1.312-5.573 1.968-9.157 1.968H59.75V48h-9.813Zm9.812-22.969h6.656c2.854 0 4.969-.718 6.344-2.156 1.396-1.458 2.094-3.333 2.094-5.625 0-2.333-.698-4.208-2.094-5.625-1.396-1.417-3.52-2.125-6.375-2.125H59.75v15.531ZM89.594 9.563V1.437h38.218v8.126h-14.187V48h-9.813V9.562H89.594Z"/><path fill="#B3B3B3" d="M166.312 48.656c-5.645 0-10.156-1.291-13.531-3.875-3.354-2.583-5.104-6.385-5.25-11.406h9.531c.167 2.333 1.084 4.094 2.75 5.281 1.688 1.167 3.813 1.75 6.376 1.75 2.5 0 4.5-.531 6-1.593 1.52-1.063 2.281-2.448 2.281-4.157 0-1.562-.688-2.76-2.063-3.593-1.375-.855-3.333-1.584-5.875-2.188l-5.093-1.25c-3.917-.938-7.011-2.427-9.282-4.469-2.25-2.062-3.375-4.812-3.375-8.25 0-2.812.761-5.27 2.281-7.375 1.521-2.125 3.605-3.77 6.25-4.937 2.667-1.188 5.698-1.781 9.094-1.781 3.459 0 6.479.593 9.063 1.78 2.583 1.188 4.593 2.834 6.031 4.938 1.458 2.104 2.208 4.532 2.25 7.282h-9.5c-.167-1.813-.938-3.23-2.312-4.25-1.376-1.021-3.24-1.532-5.594-1.532-2.396 0-4.24.5-5.532 1.5-1.291.98-1.937 2.23-1.937 3.75 0 1.646.719 2.896 2.156 3.75 1.438.834 3.167 1.49 5.188 1.969l4.156 1.031c2.708.604 5.115 1.49 7.219 2.657 2.104 1.145 3.76 2.625 4.968 4.437 1.209 1.792 1.813 3.98 1.813 6.563 0 4.27-1.594 7.666-4.781 10.187-3.188 2.52-7.615 3.781-13.282 3.781Zm45.657-.031c-4.125 0-7.834-.938-11.125-2.813-3.292-1.874-5.896-4.593-7.813-8.156-1.916-3.562-2.875-7.864-2.875-12.906 0-5.083.959-9.406 2.875-12.969 1.917-3.562 4.521-6.281 7.813-8.156 3.291-1.875 7-2.813 11.125-2.813s7.823.938 11.093 2.813c3.292 1.875 5.896 4.594 7.813 8.156 1.917 3.563 2.875 7.886 2.875 12.969 0 5.083-.958 9.406-2.875 12.969-1.917 3.541-4.521 6.25-7.813 8.125-3.27 1.854-6.968 2.781-11.093 2.781ZM200.125 24.75c0 4.917 1.073 8.677 3.219 11.281 2.166 2.604 5.041 3.907 8.625 3.907 3.562 0 6.416-1.303 8.562-3.907 2.167-2.604 3.25-6.364 3.25-11.281 0-4.938-1.083-8.708-3.25-11.313-2.146-2.624-5-3.937-8.562-3.937-3.584 0-6.459 1.313-8.625 3.938-2.146 2.604-3.219 6.374-3.219 11.312ZM241.062 48V1.437h30.813v8.126h-21v12.78h18.937v7.97h-18.937V48h-9.813Zm35.657-38.438V1.438h38.219v8.124H300.75V48h-9.812V9.562h-14.219Z"/></svg>